<svg xmlns="http://www.w3.org/2000/svg" viewBox="0 0 96 96"><defs><style>.cls-1{fill:#e0e0e0;}.cls-2{fill:#424242;}.cls-3{fill:#616161;}.cls-4{fill:#757575;}</style></defs><title>ic_launcher2</title><g id="Layer_2" data-name="Layer 2"><g id="Layer_1-2" data-name="Layer 1"><circle class="cls-1" cx="48" cy="48" r="48"/><path class="cls-2" d="M66.06,60a34.42,34.42,0,0,0-4.21-10.66c-2.45-4.41-5-8.78-7.26-13.29a72.21,72.21,0,0,1-5.53-16.26l-1.17-6.17-1,4.85A78.72,78.72,0,0,1,38.16,42c-2,3.45-4,6.87-5.83,10.38a22.21,22.21,0,0,0-2.62,14.44C31.33,76,40,84,51.52,81.78A18.62,18.62,0,0,0,66.06,60Z"/><path class="cls-3" d="M66.06,60a34.42,34.42,0,0,0-4.21-10.66c-1.09-2-2.2-3.91-3.29-5.87,0,.63.06,1.27.06,1.92a29.21,29.21,0,0,1-25.71,29,18,18,0,0,0,18.61,7.35A18.62,18.62,0,0,0,66.06,60Z"/><path class="cls-4" d="M66.06,60a30.92,30.92,0,0,0-3.24-8.86c0,.4,0,.8,0,1.21A26.28,26.28,0,0,1,37,78.67a18,18,0,0,0,14.5,3.11A18.62,18.62,0,0,0,66.06,60Z"/></g></g></svg>